<svg width="32" height="33" viewBox="0 0 32 33" fill="none" xmlns="http://www.w3.org/2000/svg">
<path d="M27 0.220703H5C2.23858 0.220703 0 2.45928 0 5.2207V27.2207C0 29.9821 2.23858 32.2207 5 32.2207H27C29.7614 32.2207 32 29.9821 32 27.2207V5.2207C32 2.45928 29.7614 0.220703 27 0.220703Z" fill="#2867B2"/>
<path d="M11.6 24.2207H8.2V13.5207H11.6V24.2207ZM9.9 12.0207C8.8 12.0207 8 11.2207 8 10.1207C8 9.0207 8.9 8.2207 9.9 8.2207C11 8.2207 11.8 9.0207 11.8 10.1207C11.8 11.2207 11 12.0207 9.9 12.0207ZM24 24.2207H20.6V18.4207C20.6 16.7207 19.9 16.2207 18.9 16.2207C17.9 16.2207 16.9 17.0207 16.9 18.5207V24.2207H13.5V13.5207H16.7V15.0207C17 14.3207 18.2 13.2207 19.9 13.2207C21.8 13.2207 23.8 14.3207 23.8 17.6207V24.2207H24Z" fill="white"/>
</svg>
