<svg width="32" height="33" viewBox="0 0 32 33" fill="none" xmlns="http://www.w3.org/2000/svg">
<path d="M27 0.220703H5C2.23858 0.220703 0 2.45928 0 5.2207V27.2207C0 29.9821 2.23858 32.2207 5 32.2207H27C29.7614 32.2207 32 29.9821 32 27.2207V5.2207C32 2.45928 29.7614 0.220703 27 0.220703Z" fill="#25D366"/>
<path fill-rule="evenodd" clip-rule="evenodd" d="M21.6 10.5207C20.1 9.0207 18.1 8.2207 16 8.2207C11.6 8.2207 8 11.8207 8 16.2207C8 17.6207 8.40001 19.0207 9.10001 20.2207L8 24.2207L12.2 23.1207C13.4 23.7207 14.7 24.1207 16 24.1207C20.4 24.1207 24 20.5207 24 16.1207C24 14.0207 23.1 12.0207 21.6 10.5207ZM16 22.8207C14.8 22.8207 13.6 22.5207 12.6 21.9207L12.4 21.8207L9.89999 22.5207L10.6 20.1207L10.4 19.8207C9.69999 18.7207 9.39999 17.5207 9.39999 16.3207C9.39999 12.7207 12.4 9.7207 16 9.7207C17.8 9.7207 19.4 10.4207 20.7 11.6207C22 12.9207 22.6 14.5207 22.6 16.3207C22.6 19.8207 19.7 22.8207 16 22.8207ZM19.6 17.8207C19.4 17.7207 18.4 17.2207 18.2 17.2207C18 17.1207 17.9 17.1207 17.8 17.3207C17.7 17.5207 17.3 17.9207 17.2 18.1207C17.1 18.2207 17 18.2207 16.8 18.2207C16.6 18.1207 16 17.9207 15.2 17.2207C14.6 16.7207 14.2 16.0207 14.1 15.8207C14 15.6207 14.1 15.5207 14.2 15.4207C14.3 15.3207 14.4 15.2207 14.5 15.1207C14.6 15.0207 14.6 14.9207 14.7 14.8207C14.8 14.7207 14.7 14.6207 14.7 14.5207C14.7 14.4207 14.3 13.4207 14.1 13.0207C14 12.7207 13.8 12.7207 13.7 12.7207C13.6 12.7207 13.5 12.7207 13.3 12.7207C13.2 12.7207 13 12.7207 12.8 12.9207C12.6 13.1207 12.1 13.6207 12.1 14.6207C12.1 15.6207 12.8 16.5207 12.9 16.7207C13 16.8207 14.3 18.9207 16.3 19.7207C18 20.4207 18.3 20.2207 18.7 20.2207C19.1 20.2207 19.9 19.7207 20 19.3207C20.2 18.8207 20.2 18.4207 20.1 18.4207C20 17.9207 19.8 17.9207 19.6 17.8207Z" fill="white"/>
</svg>
