<svg width="32" height="32" viewBox="0 0 32 32" fill="none" xmlns="http://www.w3.org/2000/svg">
<path d="M16.0007 14.6663C17.4734 14.6663 18.6673 13.4724 18.6673 11.9997C18.6673 10.5269 17.4734 9.33301 16.0007 9.33301C14.5279 9.33301 13.334 10.5269 13.334 11.9997C13.334 13.4724 14.5279 14.6663 16.0007 14.6663Z" stroke="#0092E0" stroke-width="2.5" stroke-linecap="round" stroke-linejoin="round"/>
<path d="M15.9993 28C15.9993 28 25.3327 21.5385 25.3327 13.2308C25.3327 10.7826 24.3494 8.43474 22.599 6.70363C20.8487 4.97252 18.4747 4 15.9993 4C13.524 4 11.15 4.97252 9.39969 6.70363C7.64935 8.43474 6.66602 10.7826 6.66602 13.2308C6.66602 21.5385 15.9993 28 15.9993 28Z" stroke="#0092E0" stroke-width="2.5" stroke-linecap="round" stroke-linejoin="round"/>
</svg>
